<?xml version="1.0" standalone="no"?>
<!DOCTYPE svg PUBLIC "-//W3C//DTD SVG 20010904//EN"
 "http://www.w3.org/TR/2001/REC-SVG-20010904/DTD/svg10.dtd">
<svg version="1.0" xmlns="http://www.w3.org/2000/svg"
 width="128.000000pt" height="128.000000pt" viewBox="0 0 128.000000 128.000000"
 preserveAspectRatio="xMidYMid meet">
<metadata>
Created by potrace 1.11, written by Peter Selinger 2001-2013
</metadata>
<g transform="translate(0.000000,128.000000) scale(0.100000,-0.100000)"
fill="#000000" stroke="none">
<path d="M619 1168 c-35 -28 -58 -44 -50 -35 8 10 11 20 8 23 -3 3 -17 -12
-31 -33 -30 -44 -30 -44 -11 21 8 27 13 51 11 53 -5 5 -91 -116 -100 -141 -3
-10 -9 -17 -11 -14 -3 2 4 36 14 74 11 38 18 70 16 72 -6 6 -94 -143 -102
-173 -8 -29 -8 -29 -13 15 -5 43 -6 41 -19 -43 l-14 -88 -20 31 c-26 41 -30
38 -11 -9 l15 -38 -53 -52 c-49 -48 -50 -50 -14 -27 51 34 66 33 34 -1 -14
-16 -34 -44 -43 -63 l-17 -35 35 40 36 40 -19 -40 c-11 -22 -22 -60 -25 -85
l-5 -45 15 40 c15 39 44 79 32 44 -14 -40 -19 -109 -8 -109 6 0 11 10 11 23 1
12 7 35 14 52 12 28 13 23 25 -80 7 -61 18 -123 26 -140 23 -52 135 -195 153
-196 9 0 4 -5 -13 -10 -19 -5 -31 -5 -36 3 -9 15 -64 -4 -64 -23 -1 -8 3 -34
7 -58 7 -36 5 -46 -10 -57 -32 -25 -115 -43 -169 -37 l-53 6 0 -37 0 -36 480
0 c467 0 480 1 480 19 0 15 -15 24 -65 41 -36 12 -71 31 -79 42 -10 13 -21 18
-32 14 -15 -6 -16 0 -10 58 7 72 10 68 -71 81 l-43 7 0 75 c0 94 15 126 94
206 34 34 48 54 33 44 -49 -32 -40 -13 31 61 38 40 66 72 63 72 -3 0 -26 -11
-50 -25 -23 -14 -45 -25 -48 -25 -2 0 17 26 43 58 45 53 45 55 10 22 -33 -30
-37 -31 -26 -10 23 44 82 134 103 158 28 31 14 28 -60 -13 l-64 -35 37 58 36
57 -43 -40 -42 -40 28 50 c15 28 41 69 56 93 16 23 26 42 24 42 -9 0 -155 -92
-160 -101 -4 -5 -11 -9 -16 -9 -6 0 11 30 37 68 l47 67 -58 -55 -58 -55 28 50
c15 28 36 65 47 83 28 46 11 40 -57 -20 l-59 -53 27 47 c32 56 35 71 6 34 -28
-36 -32 -29 -15 27 8 26 11 47 7 47 -4 0 -36 -29 -71 -66 -58 -60 -62 -63 -56
-35 3 17 8 46 12 64 l5 32 -20 -35 c-23 -41 -28 -25 -7 25 8 19 12 35 7 35 -4
0 -36 -23 -72 -52z"/>
</g>
</svg>
