<?xml version="1.0" standalone="no"?>
<!DOCTYPE svg PUBLIC "-//W3C//DTD SVG 20010904//EN"
 "http://www.w3.org/TR/2001/REC-SVG-20010904/DTD/svg10.dtd">
<svg version="1.0" xmlns="http://www.w3.org/2000/svg"
 width="128.000000pt" height="128.000000pt" viewBox="0 0 128.000000 128.000000"
 preserveAspectRatio="xMidYMid meet">
<metadata>
Created by potrace 1.11, written by Peter Selinger 2001-2013
</metadata>
<g transform="translate(0.000000,128.000000) scale(0.100000,-0.100000)"
fill="#000000" stroke="none">
<path d="M450 1103 c0 -22 10 -44 31 -68 l31 -35 -58 0 c-62 0 -165 13 -199
25 -39 13 28 -34 73 -51 l43 -17 -48 -28 c-56 -32 -85 -71 -113 -153 -26 -76
-26 -77 9 -29 16 22 43 50 60 63 l32 22 -31 -48 c-32 -52 -50 -104 -49 -144 0
-21 3 -18 15 15 24 65 29 58 29 -40 1 -61 5 -99 13 -107 9 -9 12 -5 12 18 0
29 29 129 35 122 2 -2 -2 -29 -7 -61 -7 -42 -7 -62 1 -70 8 -8 11 -2 11 24 1
18 7 48 15 64 l14 30 -6 -41 c-5 -42 12 -148 29 -174 7 -12 8 -11 3 4 -3 11 0
45 7 75 12 54 13 54 16 21 4 -29 6 -31 12 -15 6 15 9 8 15 -30 9 -58 24 -92
55 -120 l22 -20 -64 -20 c-53 -17 -65 -25 -77 -52 -8 -18 -21 -33 -28 -33 -7
0 -17 -10 -22 -22 -5 -13 -18 -32 -30 -42 -11 -11 -21 -30 -21 -43 0 -12 -3
-23 -7 -23 -5 -1 -33 -23 -63 -50 l-55 -50 483 0 482 0 0 135 c0 120 -2 135
-17 135 -13 0 -14 3 -5 12 7 7 12 24 12 39 0 21 -8 30 -37 44 -21 10 -57 20
-81 23 l-44 5 6 37 c3 20 17 62 31 94 75 169 44 338 -77 427 -70 51 -104 61
-234 68 -107 6 -126 10 -158 31 -20 14 -42 39 -51 55 l-15 30 0 -32z"/>
</g>
</svg>
