<?xml version="1.0" standalone="no"?>
<!DOCTYPE svg PUBLIC "-//W3C//DTD SVG 20010904//EN"
 "http://www.w3.org/TR/2001/REC-SVG-20010904/DTD/svg10.dtd">
<svg version="1.0" xmlns="http://www.w3.org/2000/svg"
 width="96.000000pt" height="96.000000pt" viewBox="0 0 96.000000 96.000000"
 preserveAspectRatio="xMidYMid meet">
<metadata>
Created by potrace 1.11, written by Peter Selinger 2001-2013
</metadata>
<g transform="translate(0.000000,96.000000) scale(0.100000,-0.100000)"
fill="#000000" stroke="none">
<path d="M273 929 c-56 -18 -102 -67 -162 -171 -57 -99 -53 -128 29 -220 48
-53 60 -73 60 -100 0 -19 9 -51 20 -73 35 -68 21 -125 -29 -125 -38 0 -46 -12
-85 -126 -33 -98 -34 -99 -64 -97 -17 2 -34 -2 -37 -7 -4 -7 157 -10 473 -10
l479 0 -5 27 c-2 16 -8 33 -12 38 -11 14 -20 62 -25 127 -2 31 -13 71 -24 89
-36 62 -61 178 -61 280 0 215 -75 332 -236 369 -84 19 -262 19 -321 -1z m581
-634 c3 -8 1 -15 -4 -15 -6 0 -10 7 -10 15 0 8 2 15 4 15 2 0 6 -7 10 -15z"/>
</g>
</svg>
