<?xml version="1.0" standalone="no"?>
<!DOCTYPE svg PUBLIC "-//W3C//DTD SVG 20010904//EN"
 "http://www.w3.org/TR/2001/REC-SVG-20010904/DTD/svg10.dtd">
<svg version="1.0" xmlns="http://www.w3.org/2000/svg"
 width="96.000000pt" height="96.000000pt" viewBox="0 0 96.000000 96.000000"
 preserveAspectRatio="xMidYMid meet">
<metadata>
Created by potrace 1.11, written by Peter Selinger 2001-2013
</metadata>
<g transform="translate(0.000000,96.000000) scale(0.100000,-0.100000)"
fill="#000000" stroke="none">
<path d="M343 940 c-4 -14 -11 -19 -23 -15 -10 3 -21 1 -25 -4 -6 -11 -56 -35
-95 -47 -42 -11 -80 -44 -80 -67 0 -12 -9 -35 -20 -52 -15 -22 -20 -47 -20
-94 0 -118 -21 -344 -46 -499 -28 -180 -27 -162 -10 -162 8 0 17 12 19 28 l4
27 2 -27 1 -28 456 0 457 0 -7 63 c-4 34 -20 136 -36 227 -17 94 -34 238 -40
334 l-10 170 -37 38 c-41 42 -90 60 -152 57 -29 -2 -48 4 -73 22 -29 22 -36
24 -58 13 -58 -29 -99 -44 -112 -40 -7 2 -26 7 -41 11 -25 5 -28 9 -22 35 5
24 3 30 -10 30 -9 0 -19 -9 -22 -20z m278 -673 c-10 -27 -41 -38 -41 -15 0 16
44 62 48 50 1 -5 -2 -21 -7 -35z m-261 -22 c11 -13 9 -15 -13 -15 -14 0 -32
-3 -41 -6 -13 -5 -16 2 -16 36 l0 41 28 -20 c16 -11 35 -27 42 -36z m346 -12
c-10 -10 -19 5 -10 18 6 11 8 11 12 0 2 -7 1 -15 -2 -18z m-649 -165 c-3 -7
-5 -2 -5 12 0 14 2 19 5 13 2 -7 2 -19 0 -25z"/>
</g>
</svg>
