<?xml version="1.0" standalone="no"?>
<!DOCTYPE svg PUBLIC "-//W3C//DTD SVG 20010904//EN"
 "http://www.w3.org/TR/2001/REC-SVG-20010904/DTD/svg10.dtd">
<svg version="1.0" xmlns="http://www.w3.org/2000/svg"
 width="100.000000pt" height="100.000000pt" viewBox="0 0 100.000000 100.000000"
 preserveAspectRatio="xMidYMid meet">
<metadata>
Created by potrace 1.11, written by Peter Selinger 2001-2013
</metadata>
<g transform="translate(0.000000,100.000000) scale(0.100000,-0.100000)"
fill="#000000" stroke="none">
<path d="M270 991 c0 -6 -10 -11 -22 -11 -13 0 -41 -10 -63 -23 -29 -16 -41
-31 -46 -54 -3 -18 -14 -43 -22 -57 -12 -18 -18 -59 -22 -158 -6 -155 -12
-234 -26 -338 -15 -106 -17 -122 -40 -239 -10 -57 -17 -106 -14 -109 12 -12
24 17 40 93 16 79 32 121 21 55 -3 -19 -10 -61 -15 -92 l-8 -58 475 0 475 0
-6 93 c-3 50 -15 137 -26 192 -37 189 -46 261 -56 440 -9 165 -10 169 -62 214
-25 23 -53 42 -62 42 -9 1 -41 4 -71 6 -52 5 -193 6 -242 3 -13 -1 -65 2 -115
6 -67 5 -93 4 -93 -5z m377 -647 c-17 -47 -49 -61 -41 -17 4 23 43 68 51 59 2
-2 -3 -20 -10 -42z m-284 8 c37 -39 43 -72 14 -72 -12 0 -32 -3 -45 -6 -22 -6
-23 -5 -21 50 3 64 13 69 52 28z m377 -37 c0 -24 -5 -35 -15 -35 -18 0 -18 -1
-4 39 14 40 19 39 19 -4z m-42 0 c-6 -14 -15 -25 -19 -25 -5 0 -3 11 3 25 6
14 15 25 19 25 5 0 3 -11 -3 -25z"/>
</g>
</svg>
