<?xml version="1.0" standalone="no"?>
<!DOCTYPE svg PUBLIC "-//W3C//DTD SVG 20010904//EN"
 "http://www.w3.org/TR/2001/REC-SVG-20010904/DTD/svg10.dtd">
<svg version="1.0" xmlns="http://www.w3.org/2000/svg"
 width="96.000000pt" height="96.000000pt" viewBox="0 0 96.000000 96.000000"
 preserveAspectRatio="xMidYMid meet">
<metadata>
Created by potrace 1.11, written by Peter Selinger 2001-2013
</metadata>
<g transform="translate(0.000000,96.000000) scale(0.100000,-0.100000)"
fill="#000000" stroke="none">
<path d="M280 950 c0 -5 14 -25 31 -45 l31 -35 -58 0 c-62 0 -165 13 -199 25
-39 13 28 -34 73 -51 l43 -17 -48 -28 c-56 -32 -85 -71 -113 -153 -26 -76 -26
-77 9 -29 16 22 43 50 60 63 l32 22 -31 -48 c-32 -52 -50 -104 -49 -144 0 -21
3 -18 15 15 24 65 29 58 29 -40 1 -61 5 -99 13 -107 9 -9 12 -5 12 18 0 29 29
129 35 122 2 -2 -2 -29 -7 -61 -7 -42 -7 -62 1 -70 8 -8 11 -2 11 24 1 18 7
48 15 64 l14 30 -6 -41 c-5 -42 12 -148 29 -174 7 -12 8 -11 3 4 -3 11 0 45 7
75 12 54 13 54 16 21 4 -29 6 -31 12 -15 6 15 9 8 15 -30 9 -58 24 -92 55
-120 l22 -20 -64 -20 c-53 -17 -65 -25 -77 -52 -8 -18 -21 -33 -28 -33 -7 0
-17 -10 -22 -23 -5 -12 -18 -31 -30 -41 -11 -11 -21 -23 -21 -28 0 -4 189 -8
420 -8 l420 0 0 70 c0 59 -3 70 -17 70 -13 0 -14 3 -5 12 7 7 12 24 12 39 0
21 -8 30 -37 44 -21 10 -57 20 -81 23 l-44 5 6 37 c6 37 52 151 65 160 18 13
49 70 60 111 15 53 7 169 -12 181 -6 4 -8 8 -3 8 8 0 -35 62 -59 85 -25 24
-93 65 -108 65 -9 0 -17 3 -17 8 0 11 -98 5 -150 -8 -111 -30 -181 -22 -232
25 -28 26 -48 32 -48 15z m430 -60 c0 -5 -2 -10 -4 -10 -3 0 -8 5 -11 10 -3 6
-1 10 4 10 6 0 11 -4 11 -10z m118 -75 c-3 -3 -9 2 -12 12 -6 14 -5 15 5 6 7
-7 10 -15 7 -18z m59 -117 c-3 -8 -6 -5 -6 6 -1 11 2 17 5 13 3 -3 4 -12 1
-19z m-26 -191 c-10 -9 -11 -8 -5 6 3 10 9 15 12 12 3 -3 0 -11 -7 -18z"/>
</g>
</svg>
