<?xml version="1.0" standalone="no"?>
<!DOCTYPE svg PUBLIC "-//W3C//DTD SVG 20010904//EN"
 "http://www.w3.org/TR/2001/REC-SVG-20010904/DTD/svg10.dtd">
<svg version="1.0" xmlns="http://www.w3.org/2000/svg"
 width="128.000000pt" height="128.000000pt" viewBox="0 0 128.000000 128.000000"
 preserveAspectRatio="xMidYMid meet">
<metadata>
Created by potrace 1.11, written by Peter Selinger 2001-2013
</metadata>
<g transform="translate(0.000000,128.000000) scale(0.100000,-0.100000)"
fill="#000000" stroke="none">
<path d="M523 1035 c-104 -45 -246 -146 -271 -191 -18 -34 -18 -109 1 -138 12
-18 15 -39 10 -93 -4 -47 -2 -72 6 -77 8 -5 11 9 12 46 l2 53 6 -43 c5 -26 18
-53 37 -73 l29 -30 1 -190 1 -189 -24 -6 c-12 -4 -23 -11 -23 -18 0 -6 -16
-20 -36 -31 -19 -10 -40 -27 -45 -37 -9 -17 9 -18 422 -18 418 0 432 1 416 18
-16 18 -97 292 -97 328 0 9 8 22 17 29 15 11 14 17 -15 68 -37 65 -37 67 -17
67 8 0 29 28 46 63 43 84 43 129 -2 191 -19 26 -48 69 -65 97 -45 70 -55 80
-93 96 -18 8 -57 32 -86 54 -50 37 -55 39 -126 39 -41 -1 -89 -7 -106 -15z
m386 -812 c12 -45 21 -84 21 -87 0 -4 -13 0 -29 8 -32 17 -41 50 -40 151 0 57
1 59 14 34 7 -14 23 -62 34 -106z m-132 32 c-1 -47 -5 -85 -9 -85 -4 0 -8 38
-8 85 0 47 4 85 9 85 5 0 8 -38 8 -85z m-238 19 c1 -2 0 -25 -4 -52 -6 -46 -9
-51 -46 -65 l-39 -15 0 94 0 94 43 -27 c23 -15 44 -28 46 -29z"/>
</g>
</svg>
